<svg width="120" height="119" viewBox="0 0 120 119" fill="none" xmlns="http://www.w3.org/2000/svg">
<g style="mix-blend-mode:luminosity" opacity="0.7">
<path d="M21.1889 14.5629C22.3324 10.2951 26.7191 7.76247 30.9868 8.906L72.8505 20.1233C77.1182 21.2669 79.6509 25.6536 78.5073 29.9213L63.89 84.4738C62.7465 88.7415 58.3598 91.2742 54.0921 90.1306L12.2284 78.9133C7.96069 77.7698 5.42803 73.3831 6.57156 69.1153L21.1889 14.5629Z" fill="url(#paint0_linear_40000639_50969)"/>
<path d="M21.1889 14.5629C22.3324 10.2951 26.7191 7.76247 30.9868 8.906L72.8505 20.1233C77.1182 21.2669 79.6509 25.6536 78.5073 29.9213L76.24 38.3831L18.9215 23.0246L21.1889 14.5629Z" fill="url(#paint1_linear_40000639_50969)"/>
<circle cx="35.5368" cy="16.2315" r="2.94437" fill="#D9D9D9"/>
<circle cx="50.9362" cy="20.3091" r="2.94437" fill="#D9D9D9"/>
<circle cx="66.3376" cy="23.9322" r="2.94437" fill="#D9D9D9"/>
<rect x="26.0827" y="34.7925" width="39.4093" height="4.07683" rx="2.03841" transform="rotate(15 26.0827 34.7925)" fill="#0E959D"/>
<rect x="22.5661" y="47.9185" width="39.4093" height="3.62384" rx="1.81192" transform="rotate(15 22.5661 47.9185)" fill="#0E959D"/>
<rect x="19.1676" y="60.6074" width="39.4093" height="3.62384" rx="1.81192" transform="rotate(15 19.1676 60.6074)" fill="#0E959D"/>
<rect x="40.1784" y="5.50098" width="12.2305" height="3.17086" rx="1.58543" transform="rotate(105 40.1784 5.50098)" fill="url(#paint2_linear_40000639_50969)"/>
<rect x="55.5787" y="8.67236" width="12.2305" height="3.17086" rx="1.58543" transform="rotate(105 55.5787 8.67236)" fill="url(#paint3_linear_40000639_50969)"/>
<rect x="70.9801" y="12.2964" width="12.2305" height="3.17086" rx="1.58543" transform="rotate(105 70.9801 12.2964)" fill="url(#paint4_linear_40000639_50969)"/>
<path d="M82.8059 113.76L95.9384 64.7492C96.226 63.676 95.5837 62.5741 94.5081 62.2955L66.4337 55.0236C65.9177 54.8899 65.3696 54.9678 64.9112 55.24L51.0152 63.4907C50.5743 63.7525 50.2508 64.1737 50.1115 64.6671L39.5344 102.138C39.2315 103.211 39.8645 104.325 40.9415 104.613L80.3564 115.175C81.4234 115.46 82.5201 114.827 82.8059 113.76Z" fill="url(#paint5_linear_40000639_50969)"/>
<path d="M105.933 62.6523C106.412 62.3762 107.023 62.5401 107.299 63.0184L108.212 64.5986C108.488 65.0769 108.324 65.6885 107.846 65.9647L85.6923 78.755C85.5822 78.8186 85.4609 78.8606 85.3349 78.8787L82.9034 79.2291C82.0099 79.3578 81.4167 78.3303 81.9749 77.6209L83.4941 75.6903C83.5728 75.5903 83.6698 75.5063 83.78 75.4427L105.933 62.6523Z" fill="#2D5364"/>
<path d="M63.3223 68.1132L65.9095 54.6698L50.3863 63.6321L63.3223 68.1132Z" fill="url(#paint6_linear_40000639_50969)"/>
</g>
<defs>
<linearGradient id="paint0_linear_40000639_50969" x1="51.9187" y1="14.5147" x2="33.1603" y2="84.522" gradientUnits="userSpaceOnUse">
<stop stop-color="#8CE6E3"/>
<stop offset="1" stop-color="#68D8CD"/>
</linearGradient>
<linearGradient id="paint1_linear_40000639_50969" x1="21.0905" y1="14.93" x2="78.4089" y2="30.2885" gradientUnits="userSpaceOnUse">
<stop stop-color="white"/>
<stop offset="1" stop-color="#E1F7FA"/>
</linearGradient>
<linearGradient id="paint2_linear_40000639_50969" x1="40.1784" y1="7.08641" x2="52.4088" y2="7.08641" gradientUnits="userSpaceOnUse">
<stop stop-color="#ABCCCE"/>
<stop offset="1" stop-color="#8FB0B2"/>
</linearGradient>
<linearGradient id="paint3_linear_40000639_50969" x1="55.5787" y1="10.2578" x2="67.8092" y2="10.2578" gradientUnits="userSpaceOnUse">
<stop stop-color="#ABCCCE"/>
<stop offset="1" stop-color="#8FB0B2"/>
</linearGradient>
<linearGradient id="paint4_linear_40000639_50969" x1="70.9801" y1="13.8818" x2="83.2106" y2="13.8818" gradientUnits="userSpaceOnUse">
<stop stop-color="#ABCCCE"/>
<stop offset="1" stop-color="#8FB0B2"/>
</linearGradient>
<linearGradient id="paint5_linear_40000639_50969" x1="77.9968" y1="57.7001" x2="60.6345" y2="109.891" gradientUnits="userSpaceOnUse">
<stop stop-color="#A7A7A7"/>
<stop offset="1" stop-color="#E5E5E5"/>
</linearGradient>
<linearGradient id="paint6_linear_40000639_50969" x1="56.4231" y1="56.1635" x2="63.3223" y2="68.1132" gradientUnits="userSpaceOnUse">
<stop stop-color="white"/>
<stop offset="1" stop-color="#F4FCFF"/>
</linearGradient>
</defs>
</svg>
