<svg width="32" height="32" viewBox="0 0 32 32" fill="none" xmlns="http://www.w3.org/2000/svg">
<rect width="32" height="32" rx="8" fill="#C7F2EB"/>
<path d="M9 9.3329C9 8.47379 9.69645 7.77734 10.5556 7.77734H21.4444C22.3036 7.77734 23 8.47379 23 9.3329V23.3329C23 24.192 22.3036 24.8885 21.4444 24.8885H10.5556C9.69645 24.8885 9 24.192 9 23.3329V9.3329Z" fill="url(#paint0_linear_40000653_64648)"/>
<path d="M9 9.3329C9 8.47379 9.69645 7.77734 10.5556 7.77734H21.4444C22.3036 7.77734 23 8.47379 23 9.3329V11.6662H9V9.3329Z" fill="white"/>
<path d="M11.3335 14H20.6668V15.5556H11.3335V14Z" fill="#0E959D"/>
<path d="M11.3335 17.1113H20.6668V18.6669H11.3335V17.1113Z" fill="#0E959D"/>
<path d="M11.3335 20.2227H20.6668V21.7782H11.3335V20.2227Z" fill="#0E959D"/>
<path d="M19.8887 7C20.3183 7 20.6665 7.34822 20.6665 7.77778L20.6665 8.55556C20.6665 8.98511 20.3183 9.33333 19.8887 9.33333V9.33333C19.4592 9.33333 19.1109 8.98511 19.1109 8.55556L19.1109 7.77778C19.1109 7.34822 19.4592 7 19.8887 7V7Z" fill="#5EBABF"/>
<path d="M16.0001 7C16.4296 7 16.7778 7.34822 16.7778 7.77778L16.7778 8.55556C16.7778 8.98511 16.4296 9.33333 16.0001 9.33333V9.33333C15.5705 9.33333 15.2223 8.98511 15.2223 8.55556L15.2223 7.77778C15.2223 7.34822 15.5705 7 16.0001 7V7Z" fill="#5EBABF"/>
<path d="M12.1109 7C12.5404 7 12.8887 7.34822 12.8887 7.77778L12.8887 8.55556C12.8887 8.98511 12.5404 9.33333 12.1109 9.33333V9.33333C11.6813 9.33333 11.3331 8.98511 11.3331 8.55556L11.3331 7.77778C11.3331 7.34822 11.6813 7 12.1109 7V7Z" fill="#5EBABF"/>
<defs>
<linearGradient id="paint0_linear_40000653_64648" x1="16" y1="7.77734" x2="16" y2="24.8885" gradientUnits="userSpaceOnUse">
<stop stop-color="#8CE6E3"/>
<stop offset="1" stop-color="#09D5C0"/>
</linearGradient>
</defs>
</svg>
